<svg width="609" height="452" xmlns="http://www.w3.org/2000/svg" xmlns:xlink="http://www.w3.org/1999/xlink" overflow="hidden"><defs><clipPath id="clip0"><path d="M188 170 797 170 797 622 188 622Z" fill-rule="evenodd" clip-rule="evenodd"/></clipPath></defs><g clip-path="url(#clip0)" transform="translate(-188 -170)"><path d="M578.916 367.934 626.393 385.926 594.477 469.947 547 451.955ZM702.493 182.951 702.725 183.036C757.539 206.341 796 260.898 796 324.486 796 409.27 727.625 478 643.28 478 627.465 478 612.212 475.584 597.865 471.098L594.509 469.864 626.418 385.861 630.567 387.167C634.673 388.019 638.925 388.467 643.28 388.467 678.119 388.467 706.362 359.822 706.362 324.486 706.362 301.297 694.199 280.989 675.99 269.768L670.583 266.96ZM668.672 170 702.538 182.834 670.697 266.658 636.831 253.824Z" fill="#FF0000" fill-rule="evenodd"/><path d="M481 0 367.375 0 240.5 329.121 113.625 0 0 0 171.195 451 180.985 451 300.015 451 309.805 451Z" fill="#00AA00" fill-rule="evenodd" transform="matrix(-1 -8.74228e-08 -8.74228e-08 1 669 170)"/></g></svg>